<svg xmlns="http://www.w3.org/2000/svg" width="19" height="20" viewBox="0 0 19 20" fill="none">
  <g clip-path="url(#clip0_2001_239)">
    <path d="M3.05584 11.3537L14.25 18.0592C14.4894 18.1974 14.7609 18.2706 15.0373 18.2713C15.3138 18.2721 15.5856 18.2005 15.8258 18.0636C16.066 17.9267 16.2662 17.7293 16.4064 17.491C16.5466 17.2527 16.622 16.9819 16.625 16.7054L16.625 3.29458C16.622 3.01813 16.5466 2.74729 16.4064 2.50902C16.2662 2.27074 16.066 2.07332 15.8258 1.93642C15.5856 1.79951 15.3138 1.72788 15.0373 1.72865C14.7609 1.72943 14.4894 1.80258 14.25 1.94083L3.05583 8.64625C2.82317 8.78738 2.6308 8.98609 2.4973 9.22322C2.3638 9.46034 2.29366 9.72787 2.29366 10C2.29366 10.2721 2.3638 10.5397 2.4973 10.7768C2.6308 11.0139 2.82317 11.2126 3.05584 11.3537Z" stroke="#1C1C1C" stroke-width="2" stroke-linecap="round" stroke-linejoin="round"/>
  </g>
  <defs>
    <clipPath id="clip0_2001_239">
      <rect width="19" height="19" fill="white" transform="translate(0 19.5) rotate(-90)"/>
    </clipPath>
  </defs>
</svg>